<?xml version="1.0" encoding="UTF-8" standalone="no"?>
<svg
   width="512"
   height="512"
   viewBox="0 0 512 512"
   fill="none"
   version="1.1"
   id="svg11"
   sodipodi:docname="background.svg"
   inkscape:version="1.4.3 (0d15f75042, 2025-12-25)"
   inkscape:export-filename="background.png"
   inkscape:export-xdpi="96"
   inkscape:export-ydpi="96"
   xmlns:inkscape="http://www.inkscape.org/namespaces/inkscape"
   xmlns:sodipodi="http://sodipodi.sourceforge.net/DTD/sodipodi-0.dtd"
   xmlns="http://www.w3.org/2000/svg"
   xmlns:svg="http://www.w3.org/2000/svg">
  <sodipodi:namedview
     id="namedview11"
     pagecolor="#505050"
     bordercolor="#eeeeee"
     borderopacity="1"
     inkscape:showpageshadow="0"
     inkscape:pageopacity="0"
     inkscape:pagecheckerboard="0"
     inkscape:deskcolor="#505050"
     inkscape:zoom="0.69191503"
     inkscape:cx="-70.817945"
     inkscape:cy="281.10388"
     inkscape:window-width="2544"
     inkscape:window-height="1363"
     inkscape:window-x="35"
     inkscape:window-y="32"
     inkscape:window-maximized="0"
     inkscape:current-layer="svg11" />
  <defs
     id="defs11">
    <radialGradient
       id="paint0_radial_4033_8"
       cx="0"
       cy="0"
       r="1"
       gradientTransform="matrix(3.5,24.5214,-15.8099,2.26053,80,52.9904)"
       gradientUnits="userSpaceOnUse">
      <stop
         stop-color="#72AAEE"
         id="stop10" />
      <stop
         offset="1"
         stop-color="#3584E4"
         id="stop11" />
    </radialGradient>
    <mask
       id="mask0_4033_8"
       maskUnits="userSpaceOnUse"
       x="56"
       y="46"
       width="21"
       height="36">
      <path
         d="m 76.4223,63.1501 c 0.3482,0.5123 0.3457,1.1859 -0.0063,1.6956 L 65.0175,81.3524 C 64.7375,81.7579 64.2761,82 63.7832,82 h -5.9804 c -1.1981,0 -1.9127,-1.3352 -1.2481,-2.332 l 9.8906,-14.8359 c 0.3359,-0.5039 0.3359,-1.1603 0,-1.6641 L 57.0729,49.1094 C 56.1869,47.7803 57.1396,46 58.737,46 h 5.2334 c 0.4967,0 0.9613,0.2459 1.2405,0.6568 z"
         fill="#2779dd"
         id="path9" />
    </mask>
    <clipPath
       clipPathUnits="userSpaceOnUse"
       id="clipPath11">
      <rect
         width="128"
         height="128"
         fill="#ffffff"
         id="rect12"
         x="0"
         y="0"
         transform="rotate(-30)" />
    </clipPath>
    <clipPath
       clipPathUnits="userSpaceOnUse"
       id="clipPath12">
      <rect
         width="128"
         height="128"
         fill="#ffffff"
         id="rect13"
         x="0"
         y="0"
         transform="rotate(-30)" />
    </clipPath>
    <clipPath
       clipPathUnits="userSpaceOnUse"
       id="clipPath13">
      <rect
         width="128"
         height="128"
         fill="#ffffff"
         id="rect14"
         x="0"
         y="0"
         transform="rotate(-30)" />
    </clipPath>
    <clipPath
       clipPathUnits="userSpaceOnUse"
       id="clipPath14">
      <rect
         width="128"
         height="128"
         fill="#ffffff"
         id="rect15"
         x="0"
         y="0"
         transform="rotate(-30)" />
    </clipPath>
    <clipPath
       clipPathUnits="userSpaceOnUse"
       id="clipPath15">
      <rect
         width="128"
         height="128"
         fill="#ffffff"
         id="rect16"
         x="0"
         y="0"
         transform="rotate(-30)" />
    </clipPath>
    <clipPath
       clipPathUnits="userSpaceOnUse"
       id="clipPath16">
      <rect
         width="128"
         height="128"
         fill="#ffffff"
         id="rect17"
         x="0"
         y="0"
         transform="rotate(-30)" />
    </clipPath>
    <radialGradient
       id="paint0_radial_4033_8-3"
       cx="0"
       cy="0"
       r="1"
       gradientTransform="matrix(3.5,24.5214,-15.8099,2.26053,174.26633,65.9904)"
       gradientUnits="userSpaceOnUse">
      <stop
         stop-color="#72AAEE"
         id="stop10-6" />
      <stop
         offset="1"
         stop-color="#3584E4"
         id="stop11-7" />
    </radialGradient>
    <radialGradient
       id="paint0_radial_4033_8-35"
       cx="0"
       cy="0"
       r="1"
       gradientTransform="matrix(3.5,24.5214,-15.8099,2.26053,80,52.9904)"
       gradientUnits="userSpaceOnUse">
      <stop
         stop-color="#72AAEE"
         id="stop10-62" />
      <stop
         offset="1"
         stop-color="#3584E4"
         id="stop11-9" />
    </radialGradient>
    <mask
       id="mask0_4033_8-1"
       maskUnits="userSpaceOnUse"
       x="56"
       y="46"
       width="21"
       height="36">
      <path
         d="m 76.4223,63.1501 c 0.3482,0.5123 0.3457,1.1859 -0.0063,1.6956 L 65.0175,81.3524 C 64.7375,81.7579 64.2761,82 63.7832,82 h -5.9804 c -1.1981,0 -1.9127,-1.3352 -1.2481,-2.332 l 9.8906,-14.8359 c 0.3359,-0.5039 0.3359,-1.1603 0,-1.6641 L 57.0729,49.1094 C 56.1869,47.7803 57.1396,46 58.737,46 h 5.2334 c 0.4967,0 0.9613,0.2459 1.2405,0.6568 z"
         fill="#2779dd"
         id="path9-2" />
    </mask>
    <radialGradient
       id="paint0_radial_4033_8-9"
       cx="0"
       cy="0"
       r="1"
       gradientTransform="matrix(3.5,24.5214,-15.8099,2.26053,80,52.9904)"
       gradientUnits="userSpaceOnUse">
      <stop
         stop-color="#72AAEE"
         id="stop10-3" />
      <stop
         offset="1"
         stop-color="#3584E4"
         id="stop11-6" />
    </radialGradient>
  </defs>
  <g
     id="g1"
     transform="scale(4)">
    <rect
       width="128"
       height="128"
       fill="#ffffff"
       id="rect1"
       x="0"
       y="0" />
    <rect
       x="-1.5384758"
       y="-122.66472"
       width="35.5569"
       height="291.86301"
       transform="rotate(30)"
       fill="#9141ac"
       id="rect2"
       clip-path="url(#clipPath16)" />
    <rect
       x="34.018467"
       y="-122.66468"
       width="26.6677"
       height="291.86301"
       transform="rotate(30)"
       fill="#62a0ea"
       id="rect3"
       clip-path="url(#clipPath15)" />
    <rect
       x="60.68605"
       y="-122.66468"
       width="26.6677"
       height="291.86301"
       transform="rotate(30)"
       fill="#57e389"
       id="rect4"
       clip-path="url(#clipPath14)" />
    <rect
       x="87.353859"
       y="-122.66468"
       width="26.6677"
       height="291.86301"
       transform="rotate(30)"
       fill="#f5c211"
       id="rect5"
       clip-path="url(#clipPath13)" />
    <rect
       x="114.02161"
       y="-122.66477"
       width="26.6677"
       height="291.86301"
       transform="rotate(30)"
       fill="#ff7800"
       id="rect6"
       clip-path="url(#clipPath12)" />
    <rect
       x="140.68942"
       y="-122.66477"
       width="35.5569"
       height="291.86301"
       transform="rotate(30)"
       fill="#ed333b"
       id="rect7"
       clip-path="url(#clipPath11)" />
    <path
       d="m 76.2297,62.8668 c 0.4643,0.683 0.461,1.5812 -0.008,2.2608 L 65.1666,81.1365 C 64.7932,81.6772 64.178,82 63.5209,82 H 58.737 c -1.5974,0 -2.5501,-1.7803 -1.6641,-3.1094 l 9.1875,-13.7812 c 0.4479,-0.6718 0.4479,-1.547 0,-2.2188 L 57.0729,49.1094 C 56.1869,47.7803 57.1396,46 58.737,46 h 4.9687 c 0.6623,0 1.2817,0.3279 1.654,0.8757 z"
       fill="url(#paint0_radial_4033_8)"
       id="path8"
       style="fill:url(#paint0_radial_4033_8-9)" />
  </g>
</svg>
