<svg width="128" height="128" viewBox="0 0 128 128" fill="none" xmlns="http://www.w3.org/2000/svg">
<path d="M64 25C85.5391 25 103 42.4609 103 64C103 85.5391 85.5391 103 64 103C55.6999 103 48.0067 100.405 41.6836 95.9854L32.9209 97.9443C31.2042 98.3279 29.6721 96.7958 30.0557 95.0791L32.0137 86.3154C27.5942 79.9925 25 72.2996 25 64C25 42.4609 42.4609 25 64 25ZM58.7373 46C57.1399 46 56.1872 47.7803 57.0732 49.1094L66.2607 62.8906C66.7085 63.5623 66.7084 64.4377 66.2607 65.1094L57.0732 78.8906C56.1872 80.2197 57.1399 82 58.7373 82H63.5205C64.1776 82 64.7936 81.6775 65.167 81.1367L76.2217 65.1279C76.6909 64.4484 76.6937 63.5502 76.2295 62.8672L65.3594 46.876C64.9871 46.3283 64.3682 46.0001 63.7061 46H58.7373Z" fill="black"/>
</svg>
