<?xml version="1.0" encoding="UTF-8" standalone="no"?>
<svg
   width="128"
   height="128"
   viewBox="0 0 128 128"
   fill="none"
   version="1.1"
   id="svg11"
   sodipodi:docname="foreground.svg"
   inkscape:version="1.4.3 (0d15f75042, 2025-12-25)"
   xmlns:inkscape="http://www.inkscape.org/namespaces/inkscape"
   xmlns:sodipodi="http://sodipodi.sourceforge.net/DTD/sodipodi-0.dtd"
   xmlns:xlink="http://www.w3.org/1999/xlink"
   xmlns="http://www.w3.org/2000/svg"
   xmlns:svg="http://www.w3.org/2000/svg">
  <sodipodi:namedview
     id="namedview11"
     pagecolor="#505050"
     bordercolor="#eeeeee"
     borderopacity="1"
     inkscape:showpageshadow="0"
     inkscape:pageopacity="0"
     inkscape:pagecheckerboard="0"
     inkscape:deskcolor="#505050"
     inkscape:zoom="3.5078125"
     inkscape:cx="58.298441"
     inkscape:cy="82.815145"
     inkscape:window-width="2544"
     inkscape:window-height="1363"
     inkscape:window-x="35"
     inkscape:window-y="32"
     inkscape:window-maximized="0"
     inkscape:current-layer="svg11" />
  <path
     d="m 64,23 c 22.6437,0 41,18.3563 41,41 0,22.6437 -18.3563,41 -41,41 -8.6457,0 -16.6648,-2.678 -23.2773,-7.2471 l -9.8018,2.1914 c -1.7167,0.3837 -3.2488,-1.1485 -2.8652,-2.8652 l 2.1904,-9.8027 C 25.6776,80.6641 23,72.6452 23,64 23,41.3563 41.3563,23 64,23 Z"
     fill="#ffffff"
     id="path7"
     clip-path="url(#clipPath21)"
     inkscape:path-effect="#path-effect21"
     inkscape:export-filename="foreground.png"
     inkscape:export-xdpi="96"
     inkscape:export-ydpi="96" />
  <defs
     id="defs11">
    <inkscape:path-effect
       effect="powerclip"
       message=""
       id="path-effect21"
       is_visible="true"
       lpeversion="1"
       inverse="true"
       flatten="false"
       hide_clip="false" />
    <radialGradient
       id="paint0_radial_4033_8"
       cx="0"
       cy="0"
       r="1"
       gradientTransform="matrix(3.5,24.5214,-15.8099,2.26053,80,52.9904)"
       gradientUnits="userSpaceOnUse">
      <stop
         stop-color="#72AAEE"
         id="stop10" />
      <stop
         offset="1"
         stop-color="#3584E4"
         id="stop11" />
    </radialGradient>
    <mask
       id="mask0_4033_8"
       style="mask-type:alpha"
       maskUnits="userSpaceOnUse"
       x="56"
       y="46"
       width="21"
       height="36">
      <path
         d="M76.4223 63.1501C76.7705 63.6624 76.768 64.336 76.416 64.8457L65.0175 81.3524C64.7375 81.7579 64.2761 82 63.7832 82H57.8028C56.6047 82 55.8901 80.6648 56.5547 79.668L66.4453 64.8321C66.7812 64.3282 66.7812 63.6718 66.4453 63.168L57.0729 49.1094C56.1869 47.7803 57.1396 46 58.737 46H63.9704C64.4671 46 64.9317 46.2459 65.2109 46.6568L76.4223 63.1501Z"
         fill="#2779DD"
         id="path9" />
    </mask>
    <clipPath
       clipPathUnits="userSpaceOnUse"
       id="clipPath11">
      <rect
         width="128"
         height="128"
         fill="#ffffff"
         id="rect12"
         x="0"
         y="0"
         transform="rotate(-30)" />
    </clipPath>
    <clipPath
       clipPathUnits="userSpaceOnUse"
       id="clipPath12">
      <rect
         width="128"
         height="128"
         fill="#ffffff"
         id="rect13"
         x="0"
         y="0"
         transform="rotate(-30)" />
    </clipPath>
    <clipPath
       clipPathUnits="userSpaceOnUse"
       id="clipPath13">
      <rect
         width="128"
         height="128"
         fill="#ffffff"
         id="rect14"
         x="0"
         y="0"
         transform="rotate(-30)" />
    </clipPath>
    <clipPath
       clipPathUnits="userSpaceOnUse"
       id="clipPath14">
      <rect
         width="128"
         height="128"
         fill="#ffffff"
         id="rect15"
         x="0"
         y="0"
         transform="rotate(-30)" />
    </clipPath>
    <clipPath
       clipPathUnits="userSpaceOnUse"
       id="clipPath15">
      <rect
         width="128"
         height="128"
         fill="#ffffff"
         id="rect16"
         x="0"
         y="0"
         transform="rotate(-30)" />
    </clipPath>
    <clipPath
       clipPathUnits="userSpaceOnUse"
       id="clipPath16">
      <rect
         width="128"
         height="128"
         fill="#ffffff"
         id="rect17"
         x="0"
         y="0"
         transform="rotate(-30)" />
    </clipPath>
    <clipPath
       clipPathUnits="userSpaceOnUse"
       id="clipPath21">
      <path
         d="m 76.2297,62.8668 c 0.4643,0.683 0.461,1.5812 -0.0083,2.2608 L 65.1666,81.1365 C 64.7932,81.6772 64.178,82 63.5209,82 H 58.737 c -1.5974,0 -2.5501,-1.7803 -1.6641,-3.1094 l 9.1875,-13.7812 c 0.4479,-0.6718 0.4479,-1.547 0,-2.2188 L 57.0729,49.1094 C 56.1869,47.7803 57.1396,46 58.737,46 h 4.9687 c 0.6623,0 1.2817,0.3279 1.654,0.8757 z"
         fill="url(#paint0_radial_4033_8)"
         id="path21"
         style="display:none;fill:url(#radialGradient21)" />
      <path
         id="lpe_path-effect21"
         style="fill:url(#radialGradient21)"
         class="powerclip"
         d="m 18,18 h 92 v 92 H 18 Z M 76.2297,62.8668 65.3597,46.8757 C 64.9874,46.3279 64.368,46 63.7057,46 H 58.737 c -1.5974,0 -2.5501,1.7803 -1.6641,3.1094 l 9.1875,13.7812 c 0.4479,0.6718 0.4479,1.547 0,2.2188 L 57.0729,78.8906 C 56.1869,80.2197 57.1396,82 58.737,82 h 4.7839 c 0.6571,0 1.2723,-0.3228 1.6457,-0.8635 L 76.2214,65.1276 c 0.4693,-0.6796 0.4726,-1.5778 0.0083,-2.2608 z" />
    </clipPath>
    <radialGradient
       inkscape:collect="always"
       xlink:href="#paint0_radial_4033_8"
       id="radialGradient21"
       gradientUnits="userSpaceOnUse"
       gradientTransform="matrix(3.5,24.5214,-15.8099,2.26053,80,52.9904)"
       cx="0"
       cy="0"
       r="1" />
  </defs>
</svg>
