<?xml version="1.0" encoding="UTF-8" standalone="no"?>
<svg
   width="512"
   height="512"
   viewBox="0 0 512 512"
   fill="none"
   version="1.1"
   id="svg11"
   sodipodi:docname="mobile.svg"
   inkscape:version="1.4.3 (0d15f75042, 2025-12-25)"
   xmlns:inkscape="http://www.inkscape.org/namespaces/inkscape"
   xmlns:sodipodi="http://sodipodi.sourceforge.net/DTD/sodipodi-0.dtd"
   xmlns="http://www.w3.org/2000/svg"
   xmlns:svg="http://www.w3.org/2000/svg">
  <sodipodi:namedview
     id="namedview11"
     pagecolor="#505050"
     bordercolor="#eeeeee"
     borderopacity="1"
     inkscape:showpageshadow="0"
     inkscape:pageopacity="0"
     inkscape:pagecheckerboard="0"
     inkscape:deskcolor="#505050"
     inkscape:zoom="30.03125"
     inkscape:cx="14.51821"
     inkscape:cy="11.038502"
     inkscape:window-width="2544"
     inkscape:window-height="1363"
     inkscape:window-x="35"
     inkscape:window-y="32"
     inkscape:window-maximized="0"
     inkscape:current-layer="svg11" />
  <g
     id="g11"
     transform="scale(4)">
    <g
       clip-path="url(#clip0_4033_8)"
       id="g10">
      <rect
         width="128"
         height="128"
         fill="#ffffff"
         id="rect1"
         x="0"
         y="0" />
      <rect
         x="60"
         y="-107"
         width="35.5569"
         height="291.86301"
         transform="rotate(30,60,-107)"
         fill="#9141ac"
         id="rect2" />
      <rect
         x="90.793198"
         y="-89.221497"
         width="26.6677"
         height="291.86301"
         transform="rotate(30,90.7932,-89.2215)"
         fill="#62a0ea"
         id="rect3" />
      <rect
         x="113.888"
         y="-75.887703"
         width="26.6677"
         height="291.86301"
         transform="rotate(30,113.888,-75.8877)"
         fill="#57e389"
         id="rect4" />
      <rect
         x="136.983"
         y="-62.553799"
         width="26.6677"
         height="291.86301"
         transform="rotate(30,136.983,-62.5538)"
         fill="#f5c211"
         id="rect5" />
      <rect
         x="160.078"
         y="-49.220001"
         width="26.6677"
         height="291.86301"
         transform="rotate(30,160.078,-49.22)"
         fill="#ff7800"
         id="rect6" />
      <rect
         x="183.173"
         y="-35.886101"
         width="35.5569"
         height="291.86301"
         transform="rotate(30,183.173,-35.8861)"
         fill="#ed333b"
         id="rect7" />
      <path
         d="m 64,23 c 22.6437,0 41,18.3563 41,41 0,22.6437 -18.3563,41 -41,41 -8.6457,0 -16.6648,-2.678 -23.2773,-7.2471 l -9.8018,2.1914 c -1.7167,0.3837 -3.2488,-1.1485 -2.8652,-2.8652 l 2.1904,-9.8027 C 25.6776,80.6641 23,72.6452 23,64 23,41.3563 41.3563,23 64,23 Z"
         fill="#ffffff"
         id="path7" />
      <path
         d="m 76.2297,62.8668 c 0.4643,0.683 0.461,1.5812 -0.0083,2.2608 L 65.1666,81.1365 C 64.7932,81.6772 64.178,82 63.5209,82 H 58.737 c -1.5974,0 -2.5501,-1.7803 -1.6641,-3.1094 l 9.1875,-13.7812 c 0.4479,-0.6718 0.4479,-1.547 0,-2.2188 L 57.0729,49.1094 C 56.1869,47.7803 57.1396,46 58.737,46 h 4.9687 c 0.6623,0 1.2817,0.3279 1.654,0.8757 z"
         fill="url(#paint0_radial_4033_8)"
         id="path8"
         style="fill:url(#paint0_radial_4033_8)" />
      <mask
         id="mask0_4033_8"
         maskUnits="userSpaceOnUse"
         x="56"
         y="46"
         width="21"
         height="36">
        <path
           d="m 76.4223,63.1501 c 0.3482,0.5123 0.3457,1.1859 -0.0063,1.6956 L 65.0175,81.3524 C 64.7375,81.7579 64.2761,82 63.7832,82 h -5.9804 c -1.1981,0 -1.9127,-1.3352 -1.2481,-2.332 l 9.8906,-14.8359 c 0.3359,-0.5039 0.3359,-1.1603 0,-1.6641 L 57.0729,49.1094 C 56.1869,47.7803 57.1396,46 58.737,46 h 5.2334 c 0.4967,0 0.9613,0.2459 1.2405,0.6568 z"
           fill="#2779dd"
           id="path9" />
      </mask>
      <g
         mask="url(#mask0_4033_8)"
         id="g9">
        <rect
           x="52"
           y="46"
           width="17"
           height="4"
           fill="#2779dd"
           id="rect9" />
      </g>
    </g>
  </g>
  <defs
     id="defs11">
    <radialGradient
       id="paint0_radial_4033_8"
       cx="0"
       cy="0"
       r="1"
       gradientTransform="matrix(3.5,24.5214,-15.8099,2.26053,80,52.9904)"
       gradientUnits="userSpaceOnUse">
      <stop
         stop-color="#72AAEE"
         id="stop10" />
      <stop
         offset="1"
         stop-color="#3584E4"
         id="stop11" />
    </radialGradient>
    <clipPath
       id="clip0_4033_8">
      <rect
         width="128"
         height="128"
         fill="#ffffff"
         id="rect11"
         x="0"
         y="0" />
    </clipPath>
  </defs>
</svg>
