<svg width="16" height="16" viewBox="0 0 16 16" fill="none" xmlns="http://www.w3.org/2000/svg">
<g clip-path="url(#clip0_1_2728)">
<path d="M0.492399 14.8511L3 9L7 13L1.14893 15.5076C0.73407 15.6854 0.314602 15.2659 0.492399 14.8511Z" fill="#241F31"/>
<path d="M8 0C12.4183 0 16 3.58172 16 8C16 12.4183 12.4183 16 8 16C3.58172 16 0 12.4183 0 8C0 3.58172 3.58172 0 8 0ZM7 4C6.58811 4 6.35278 4.4702 6.59961 4.7998L8.77539 7.7002C8.90841 7.87784 8.90841 8.12216 8.77539 8.2998L6.59961 11.2002C6.35278 11.5298 6.58811 12 7 12H7.75C7.90738 12 8.05596 11.9257 8.15039 11.7998L10.7754 8.2998C10.9084 8.12216 10.9084 7.87784 10.7754 7.7002L8.15039 4.2002C8.05596 4.07429 7.90738 4 7.75 4H7Z" fill="#241F31"/>
</g>
<defs>
<clipPath id="clip0_1_2728">
<rect width="16" height="16" fill="white"/>
</clipPath>
</defs>
</svg>
